<svg version="1" xmlns="http://www.w3.org/2000/svg" width="370.667" height="370.667" viewBox="0 0 278.000000 278.000000"><path d="M31 1c-10 .8-14.3 2.5-20 7.6C4.2 14.8 1.9 20.5.8 34.3.3 41 0 90.5.2 148.8c.4 115.4 0 108.6 7.9 117.6 6.5 7.4 12.1 9.7 26.2 10.8 6.7.5 56.2.8 114.5.6 115.4-.4 108.6 0 117.6-7.9 7.4-6.5 9.7-12.1 10.8-26.2.5-6.7.8-56.2.6-114.5-.4-115.4 0-108.6-7.9-117.6-6.2-7-12.3-9.7-24.4-10.7C233.5-.1 43.1 0 31 1zm49.8 36.5c6 3.3 11 8.4 14.4 14.7 2.1 4 2.3 5.7 2.6 25l.3 20.8H33.9l.3-20.8c.3-19.2.5-21 2.6-24.9 6.7-12.7 16.8-18.6 30.7-18 6.6.3 9 .8 13.3 3.2zm72-.1c6 3.4 11.1 8.5 14.4 14.8 1.9 3.6 2.3 5.8 2.3 13.8s-.4 10.2-2.3 13.8c-3.3 6.3-8.4 11.4-14.4 14.8l-5.3 2.9-20.7.3-20.8.3V33.9l20.8.3 20.7.3 5.3 2.9zm68.9-1.2c7.7 2.9 15.2 10.4 18.1 18.1 2 5.2 2.2 7.8 2.2 24.7v19h-64V79c0-16.9.2-19.5 2.2-24.7 6-16.1 24.8-24.4 41.5-18.1zM86.5 107.9c12.2 5.6 15.4 22 6.2 32-2.6 2.8-9.2 6-12.4 6.1-2.3 0-2.3.2-2.3 12v12H34v-64h24.3c21.4 0 24.7.3 28.2 1.9zM170 122v16h-10v32h-44v-32h-10v-32h64v16zm54.8-12.5c6 3.3 11 8.4 14.4 14.7 2.1 4 2.3 5.7 2.6 25l.3 20.8h-64.2l.3-20.8c.3-19.2.5-21 2.6-24.9 6.7-12.7 16.8-18.6 30.7-18 6.6.3 9 .8 13.3 3.2zM86.3 179.6c10.2 5.2 14.6 17.1 10 26.9-1.6 3.3-1.6 3.7 0 7 4.6 9.6.3 21.6-9.5 26.6-3.4 1.7-6.1 1.9-28.3 1.9H34v-64h24.5c20.7 0 25.1.3 27.8 1.6zM150 194v16h20v32h-64v-64h44v16zm92 16v32h-64v-64h64v32z"/></svg>