<svg width="3000" height="1160" viewBox="0 0 3000 1160" fill="none" xmlns="http://www.w3.org/2000/svg">
<g clip-path="url(#clip0)">
<path fill-rule="evenodd" clip-rule="evenodd" d="M272.727 0.818207C423.35 0.818207 545.454 122.922 545.454 273.545V546.273H315.341V469.045C315.341 464.627 311.759 461.045 307.341 461.045H238.114C233.695 461.045 230.114 464.627 230.114 469.045V546.273H0V273.545C0 122.922 122.104 0.818207 272.727 0.818207ZM315.341 273.545C315.341 297.08 296.262 316.159 272.727 316.159C249.192 316.159 230.114 297.08 230.114 273.545C230.114 250.011 249.192 230.932 272.727 230.932C296.262 230.932 315.341 250.011 315.341 273.545Z" fill="#31CC97"/>
<path fill-rule="evenodd" clip-rule="evenodd" d="M315.341 273.545C315.341 297.08 296.262 316.159 272.727 316.159C249.192 316.159 230.114 297.08 230.114 273.545L0 273.545V546.273H230.114V469.045C230.114 464.627 233.695 461.045 238.114 461.045H307.341C311.759 461.045 315.341 464.627 315.341 469.045V546.273H545.454V273.545L315.341 273.545Z" fill="black" fill-opacity="0.3"/>
</g>
<g clip-path="url(#clip1)">
<path fill-rule="evenodd" clip-rule="evenodd" d="M1500 0.818207C1650.62 0.818207 1772.73 122.922 1772.73 273.545V546.273H1542.61V469.045C1542.61 464.627 1539.03 461.045 1534.61 461.045H1465.39C1460.97 461.045 1457.39 464.627 1457.39 469.045V546.273H1227.27V273.545C1227.27 122.922 1349.38 0.818207 1500 0.818207ZM1542.61 273.545C1542.61 297.08 1523.53 316.159 1500 316.159C1476.47 316.159 1457.39 297.08 1457.39 273.545C1457.39 250.011 1476.47 230.932 1500 230.932C1523.53 230.932 1542.61 250.011 1542.61 273.545Z" fill="#FF3571"/>
<path fill-rule="evenodd" clip-rule="evenodd" d="M1542.61 273.545C1542.61 297.08 1523.53 316.159 1500 316.159C1476.47 316.159 1457.39 297.08 1457.39 273.545L1227.27 273.545V546.273H1457.39V469.045C1457.39 464.627 1460.97 461.045 1465.39 461.045H1534.61C1539.03 461.045 1542.61 464.627 1542.61 469.045V546.273H1772.73V273.545L1542.61 273.545Z" fill="black" fill-opacity="0.3"/>
</g>
<g clip-path="url(#clip2)">
<path fill-rule="evenodd" clip-rule="evenodd" d="M886.363 614.455C1036.99 614.455 1159.09 736.559 1159.09 887.182V1159.91H928.977V1082.68C928.977 1078.26 925.395 1074.68 920.977 1074.68H851.75C847.332 1074.68 843.75 1078.26 843.75 1082.68V1159.91H613.636V887.182C613.636 736.559 735.74 614.455 886.363 614.455ZM928.977 887.182C928.977 910.717 909.898 929.795 886.363 929.795C862.829 929.795 843.75 910.717 843.75 887.182C843.75 863.647 862.829 844.568 886.363 844.568C909.898 844.568 928.977 863.647 928.977 887.182Z" fill="#31CC97"/>
<path fill-rule="evenodd" clip-rule="evenodd" d="M928.977 887.182C928.977 910.717 909.898 929.795 886.363 929.795C862.829 929.795 843.75 910.717 843.75 887.182L613.636 887.182V1159.91H843.75V1082.68C843.75 1078.26 847.332 1074.68 851.75 1074.68H920.977C925.395 1074.68 928.977 1078.26 928.977 1082.68V1159.91H1159.09V887.182L928.977 887.182Z" fill="black" fill-opacity="0.3"/>
</g>
<g clip-path="url(#clip3)">
<path fill-rule="evenodd" clip-rule="evenodd" d="M1840.91 0.818207H2215.91C2310.05 0.818207 2386.36 77.1333 2386.36 171.273C2386.36 265.412 2310.05 341.727 2215.91 341.727V546.273H1840.91V0.818207ZM2215.91 213.886C2239.44 213.886 2258.52 194.808 2258.52 171.273C2258.52 147.738 2239.44 128.659 2215.91 128.659C2192.37 128.659 2173.3 147.738 2173.3 171.273C2173.3 194.808 2192.37 213.886 2215.91 213.886Z" fill="#DC39B1"/>
<path fill-rule="evenodd" clip-rule="evenodd" d="M2215.91 0.818207H1840.91V546.273H2215.91L2215.91 213.886C2192.37 213.886 2173.3 194.808 2173.3 171.273C2173.3 147.738 2192.37 128.659 2215.91 128.659L2215.91 0.818207Z" fill="black" fill-opacity="0.3"/>
</g>
<g clip-path="url(#clip4)">
<path fill-rule="evenodd" clip-rule="evenodd" d="M2539.77 273.545H2454.55V0.818207H2539.77H2914.77H3000V273.545H2914.77V546.273H2539.77V273.545Z" fill="#677DE5"/>
<rect x="2539.77" y="273.545" width="375" height="272.727" fill="black" fill-opacity="0.3"/>
</g>
<g clip-path="url(#clip5)">
<path fill-rule="evenodd" clip-rule="evenodd" d="M2215.91 614.455H1840.91V887.182V1159.91H2215.91H2386.36V887.182H2215.91V614.455Z" fill="#FF3571"/>
<rect x="1840.91" y="614.455" width="375" height="272.727" fill="black" fill-opacity="0.3"/>
</g>
<g clip-path="url(#clip6)">
<path fill-rule="evenodd" clip-rule="evenodd" d="M1227.27 614.455H1602.27C1696.41 614.455 1772.73 690.77 1772.73 784.909C1772.73 823.282 1760.05 858.693 1738.65 887.182C1760.05 915.67 1772.73 951.082 1772.73 989.454C1772.73 1083.59 1696.41 1159.91 1602.27 1159.91H1227.27V614.455ZM1644.89 784.909C1644.89 808.444 1625.81 827.523 1602.27 827.523C1578.74 827.523 1559.66 808.444 1559.66 784.909C1559.66 761.374 1578.74 742.295 1602.27 742.295C1625.81 742.295 1644.89 761.374 1644.89 784.909ZM1644.89 989.455C1644.89 1012.99 1625.81 1032.07 1602.27 1032.07C1578.74 1032.07 1559.66 1012.99 1559.66 989.455C1559.66 965.92 1578.74 946.841 1602.27 946.841C1625.81 946.841 1644.89 965.92 1644.89 989.455Z" fill="#AACF00"/>
<path fill-rule="evenodd" clip-rule="evenodd" d="M1602.27 614.455H1227.27V1159.91H1602.27V1032.07C1578.74 1032.07 1559.66 1012.99 1559.66 989.455C1559.66 965.92 1578.74 946.841 1602.27 946.841V827.523C1578.74 827.523 1559.66 808.444 1559.66 784.909C1559.66 761.374 1578.74 742.295 1602.27 742.295V614.455Z" fill="black" fill-opacity="0.3"/>
</g>
<g clip-path="url(#clip7)">
<path fill-rule="evenodd" clip-rule="evenodd" d="M1159.09 273.545C1159.09 424.169 1036.99 546.273 886.363 546.273H613.636V273.545V0.818207H886.363C1036.99 0.818207 1159.09 122.922 1159.09 273.545ZM886.363 316.159C909.898 316.159 928.977 297.08 928.977 273.545C928.977 250.011 909.898 230.932 886.363 230.932C862.829 230.932 843.75 250.011 843.75 273.545C843.75 297.08 862.829 316.159 886.363 316.159Z" fill="#AACF00"/>
<path fill-rule="evenodd" clip-rule="evenodd" d="M886.363 0.818207H613.636V546.273H886.363L886.363 316.159C862.829 316.159 843.75 297.08 843.75 273.545C843.75 250.011 862.829 230.932 886.363 230.932L886.363 0.818207Z" fill="black" fill-opacity="0.3"/>
</g>
<g clip-path="url(#clip8)">
<path fill-rule="evenodd" clip-rule="evenodd" d="M3000 614.455H2454.55V1159.91H3000V1032.07H2924.77C2919.25 1032.07 2914.77 1027.59 2914.77 1022.07V956.841C2914.77 951.318 2919.25 946.841 2924.77 946.841H3000V827.523H2924.77C2919.25 827.523 2914.77 823.046 2914.77 817.523V752.295C2914.77 746.773 2919.25 742.295 2924.77 742.295H3000V614.455Z" fill="#DC39B1"/>
<rect x="2454.55" y="614.455" width="272.727" height="545.454" fill="black" fill-opacity="0.3"/>
</g>
<defs>
<clipPath id="clip0">
<rect y="0.818207" width="545.454" height="545.454" fill="white"/>
</clipPath>
<clipPath id="clip1">
<rect x="1227.27" y="0.818207" width="545.454" height="545.454" fill="white"/>
</clipPath>
<clipPath id="clip2">
<rect x="613.636" y="614.455" width="545.454" height="545.454" fill="white"/>
</clipPath>
<clipPath id="clip3">
<rect x="1840.91" y="0.818207" width="545.454" height="545.454" fill="white"/>
</clipPath>
<clipPath id="clip4">
<rect x="2454.55" y="0.818207" width="545.454" height="545.454" fill="white"/>
</clipPath>
<clipPath id="clip5">
<rect x="1840.91" y="614.455" width="545.454" height="545.454" fill="white"/>
</clipPath>
<clipPath id="clip6">
<rect x="1227.27" y="614.455" width="545.454" height="545.454" fill="white"/>
</clipPath>
<clipPath id="clip7">
<rect x="613.636" y="0.818207" width="545.454" height="545.454" fill="white"/>
</clipPath>
<clipPath id="clip8">
<rect x="2454.55" y="614.455" width="545.454" height="545.454" fill="white"/>
</clipPath>
</defs>
</svg>
