<svg width="2560" height="256" viewBox="0 0 2560 256" fill="none" xmlns="http://www.w3.org/2000/svg">
<path fill-rule="evenodd" clip-rule="evenodd" d="M128 0C198.692 0 256 57.3076 256 128V256H148V224C148 219.582 144.418 216 140 216H116C111.582 216 108 219.582 108 224V256H0V128C0 57.3076 57.3076 0 128 0ZM148 128C148 139.046 139.046 148 128 148C116.954 148 108 139.046 108 128C108 116.954 116.954 108 128 108C139.046 108 148 116.954 148 128Z" fill="#31CC97"/>
<path fill-rule="evenodd" clip-rule="evenodd" d="M148 128C148 139.046 139.046 148 128 148C116.954 148 108 139.046 108 128H0V256H108V224C108 219.582 111.582 216 116 216H140C144.418 216 148 219.582 148 224V256H256V128H148Z" fill="black" fill-opacity="0.3"/>
<path fill-rule="evenodd" clip-rule="evenodd" d="M704 0C774.692 0 832 57.3076 832 128V256H724V224C724 219.582 720.418 216 716 216H692C687.582 216 684 219.582 684 224V256H576V128C576 57.3076 633.308 0 704 0ZM724 128C724 139.046 715.046 148 704 148C692.954 148 684 139.046 684 128C684 116.954 692.954 108 704 108C715.046 108 724 116.954 724 128Z" fill="#FF3571"/>
<path fill-rule="evenodd" clip-rule="evenodd" d="M724 128C724 139.046 715.046 148 704 148C692.954 148 684 139.046 684 128H576V256H684V224C684 219.582 687.582 216 692 216H716C720.418 216 724 219.582 724 224V256H832V128H724Z" fill="black" fill-opacity="0.3"/>
<path fill-rule="evenodd" clip-rule="evenodd" d="M1568 0C1638.69 0 1696 57.3076 1696 128V256H1588V224C1588 219.582 1584.42 216 1580 216H1556C1551.58 216 1548 219.582 1548 224V256H1440V128C1440 57.3076 1497.31 0 1568 0ZM1588 128C1588 139.046 1579.05 148 1568 148C1556.95 148 1548 139.046 1548 128C1548 116.954 1556.95 108 1568 108C1579.05 108 1588 116.954 1588 128Z" fill="#31CC97"/>
<path fill-rule="evenodd" clip-rule="evenodd" d="M1588 128C1588 139.046 1579.05 148 1568 148C1556.95 148 1548 139.046 1548 128H1440V256H1548V224C1548 219.582 1551.58 216 1556 216H1580C1584.42 216 1588 219.582 1588 224V256H1696V128H1588Z" fill="black" fill-opacity="0.3"/>
<path fill-rule="evenodd" clip-rule="evenodd" d="M864 0H1040C1084.18 0 1120 35.8172 1120 80C1120 124.183 1084.18 160 1040 160V256H864V0ZM1040 100C1051.05 100 1060 91.0457 1060 80C1060 68.9543 1051.05 60 1040 60C1028.95 60 1020 68.9543 1020 80C1020 91.0457 1028.95 100 1040 100Z" fill="#DC39B1"/>
<path fill-rule="evenodd" clip-rule="evenodd" d="M1040 0H864V256H1040V100C1028.95 100 1020 91.0457 1020 80C1020 68.9543 1028.95 60 1040 60V0Z" fill="black" fill-opacity="0.3"/>
<path fill-rule="evenodd" clip-rule="evenodd" d="M1192 128H1152V0H1192H1368H1408V128H1368V256H1192V128Z" fill="#677DE5"/>
<rect x="1192" y="128" width="176" height="128" fill="black" fill-opacity="0.3"/>
<path fill-rule="evenodd" clip-rule="evenodd" d="M2192 0H2016V128V256H2192H2272V128H2192V0Z" fill="#FF3571"/>
<rect x="2016" width="176" height="128" fill="black" fill-opacity="0.3"/>
<path fill-rule="evenodd" clip-rule="evenodd" d="M1728 0H1904C1948.18 0 1984 35.8172 1984 80C1984 98.0097 1978.05 114.629 1968.01 128C1978.05 141.371 1984 157.99 1984 176C1984 220.183 1948.18 256 1904 256H1728V0ZM1924 80C1924 91.0457 1915.05 100 1904 100C1892.95 100 1884 91.0457 1884 80C1884 68.9543 1892.95 60 1904 60C1915.05 60 1924 68.9543 1924 80ZM1924 176C1924 187.046 1915.05 196 1904 196C1892.95 196 1884 187.046 1884 176C1884 164.954 1892.95 156 1904 156C1915.05 156 1924 164.954 1924 176Z" fill="#AACF00"/>
<path fill-rule="evenodd" clip-rule="evenodd" d="M1904 0H1728V256H1904V196C1892.95 196 1884 187.046 1884 176C1884 164.954 1892.95 156 1904 156V100C1892.95 100 1884 91.0457 1884 80C1884 68.9543 1892.95 60 1904 60V0Z" fill="black" fill-opacity="0.3"/>
<path fill-rule="evenodd" clip-rule="evenodd" d="M544 128C544 198.692 486.692 256 416 256H288V128V0H416C486.692 0 544 57.3076 544 128ZM416 148C427.046 148 436 139.046 436 128C436 116.954 427.046 108 416 108C404.954 108 396 116.954 396 128C396 139.046 404.954 148 416 148Z" fill="#AACF00"/>
<path fill-rule="evenodd" clip-rule="evenodd" d="M416 0H288V256H416V148C404.954 148 396 139.046 396 128C396 116.954 404.954 108 416 108V0Z" fill="black" fill-opacity="0.3"/>
<path fill-rule="evenodd" clip-rule="evenodd" d="M2560 0H2304V256H2560V196H2530C2524.48 196 2520 191.523 2520 186V166C2520 160.477 2524.48 156 2530 156H2560V100H2530C2524.48 100 2520 95.5228 2520 90V70C2520 64.4771 2524.48 60 2530 60H2560V0Z" fill="#DC39B1"/>
<rect x="2304" width="128" height="256" fill="black" fill-opacity="0.3"/>
</svg>
